<svg width="32" height="32" viewBox="0 0 32 32" fill="none" xmlns="http://www.w3.org/2000/svg">
  <!-- Cooking Pot Icon -->
  <!-- Pot body -->
  <path d="M8 12C8 10 8 10 10 10H22C24 10 24 10 24 12V20C24 22 24 22 22 22H10C8 22 8 22 8 20V12Z" fill="#50C878"/>
  <!-- Pot rim -->
  <rect x="6" y="12" width="20" height="3" rx="1" fill="#3DA35D"/>
  <!-- Handle left -->
  <path d="M6 13.5C4 13.5 3 14.5 3 16.5C3 18.5 4 19.5 6 19.5" stroke="#72C984" stroke-width="2" stroke-linecap="round"/>
  <!-- Handle right -->
  <path d="M26 13.5C28 13.5 29 14.5 29 16.5C29 18.5 28 19.5 26 19.5" stroke="#72C984" stroke-width="2" stroke-linecap="round"/>
  <!-- Steam lines -->
  <path d="M12 9V6" stroke="#D3D3D3" stroke-width="1.5" stroke-linecap="round"/>
  <path d="M16 9V5" stroke="#D3D3D3" stroke-width="1.5" stroke-linecap="round"/>
  <path d="M20 9V6" stroke="#D3D3D3" stroke-width="1.5" stroke-linecap="round"/>
</svg>